<mxfile host="app.diagrams.net" modified="2023-07-03T11:28:09.238Z" agent="Mozilla/5.0 (Windows NT 10.0; Win64; x64; rv:109.0) Gecko/20100101 Firefox/114.0" version="21.3.4" etag="SZ74T-XvAXFnrxkKBRSC" type="github">
  <diagram name="Seite-1" id="fv1iWcDmX6ZNWWXUvh5D">
    <mxGraphModel>
      <root>
        <mxCell id="0" />
        <mxCell id="1" parent="0" />
      </root>
    </mxGraphModel>
  </diagram>
</mxfile>
